<svg xmlns="http://www.w3.org/2000/svg" width="1024" height="1024" viewBox="0 0 1024 1024">
<g>
<path d="M 568.93 705.00 L 553.35 752.50 L 548.22 752.80 C543.18,753.10 543.06,753.04 541.17,749.30 C538.63,744.29 519.94,698.99 511.95,678.50 C493.88,632.13 482.42,602.53 481.01,598.50 C477.28,587.92 461.74,548.46 460.98,547.64 C460.55,547.17 457.33,549.21 453.84,552.17 C434.62,568.47 412.78,576.92 380.55,580.52 C370.16,581.68 350.43,581.98 283.75,581.99 L 200.00 582.00 L 200.00 572.29 L 206.90 571.65 C215.89,570.81 225.16,567.88 229.65,564.45 C235.17,560.24 237.01,554.87 238.12,539.68 C239.59,519.69 238.77,281.51 237.22,276.95 C234.35,268.49 227.54,264.94 210.57,263.05 C205.43,262.47 201.31,261.51 200.84,260.77 C200.39,260.07 200.02,257.81 200.02,255.75 L 200.00 252.00 L 210.25 252.06 C215.89,252.09 249.75,252.52 285.50,253.01 C341.57,253.78 352.56,254.18 365.52,255.92 C396.58,260.08 417.76,268.90 432.97,284.00 C446.68,297.62 453.12,312.54 453.24,331.00 C453.29,338.23 452.77,343.37 451.57,347.50 C445.74,367.50 430.42,383.44 407.54,393.30 C398.52,397.19 376.49,404.00 372.92,404.00 C371.86,404.00 371.00,404.38 371.00,404.84 C371.00,405.30 374.94,406.24 379.75,406.92 C411.46,411.42 434.86,420.67 452.74,435.79 L 457.97 440.22 L 486.99 439.48 L 516.00 438.75 L 516.00 447.88 L 511.75 448.40 C509.41,448.68 504.65,449.19 501.16,449.52 C490.74,450.51 485.00,454.68 485.00,461.27 C485.00,465.83 490.80,483.31 502.50,514.00 C552.77,645.88 563.12,672.28 564.13,671.27 C564.88,670.52 608.21,540.33 609.50,534.98 C610.11,532.44 607.07,523.95 592.88,488.50 C580.68,458.03 571.94,450.20 548.50,448.75 L 544.50 448.50 L 544.19 443.61 L 543.88 438.72 L 547.69 439.35 C549.79,439.69 577.96,439.98 610.31,439.99 L 669.11 440.00 L 668.50 448.50 L 660.40 449.17 C650.36,450.00 645.04,451.40 641.63,454.08 C637.40,457.40 638.01,462.87 644.89,483.14 C648.13,492.69 652.92,506.12 655.53,513.00 C665.00,537.89 667.16,543.61 669.47,550.00 C670.76,553.58 675.72,566.62 680.48,579.00 C685.25,591.38 691.10,606.67 693.49,613.00 C704.92,643.28 714.99,668.00 715.90,667.99 C716.23,667.99 718.19,662.03 720.26,654.74 C722.32,647.46 729.43,622.38 736.06,599.00 C753.92,536.02 760.62,512.33 762.85,504.26 C765.93,493.08 768.46,473.35 767.57,467.50 C766.03,457.43 756.28,452.09 735.25,449.79 L 725.00 448.67 L 725.00 439.74 L 731.07 440.43 C734.41,440.81 757.84,441.12 783.13,441.12 L 829.11 441.12 L 828.81 444.81 L 828.50 448.50 L 822.00 449.29 C808.56,450.92 800.61,454.49 796.37,460.77 C789.90,470.38 783.06,490.85 753.03,590.50 C746.89,610.85 740.81,630.88 739.51,635.00 C738.21,639.12 735.11,649.25 732.62,657.50 C730.13,665.75 724.05,685.78 719.11,702.00 C714.16,718.22 708.65,736.36 706.85,742.30 L 703.57 753.09 L 699.11 752.80 L 694.64 752.50 L 690.23 742.00 C687.81,736.22 681.12,719.35 675.37,704.50 C669.62,689.65 663.15,673.00 661.01,667.50 C658.86,662.00 652.78,646.03 647.49,632.00 C642.21,617.97 636.16,602.00 634.05,596.50 C631.93,591.00 627.59,579.64 624.40,571.25 C621.20,562.86 618.35,556.01 618.05,556.03 C617.75,556.04 610.08,578.88 601.01,606.78 C591.94,634.68 577.51,678.88 568.93,705.00 ZM 319.80 568.99 C330.23,570.19 353.91,569.42 362.50,567.59 C380.08,563.85 390.72,558.37 401.65,547.44 C414.56,534.52 420.38,520.56 421.64,499.50 C423.89,461.76 402.59,429.89 368.00,419.23 C354.00,414.91 342.90,413.72 315.50,413.61 L 289.50 413.50 L 289.59 472.50 C289.69,535.59 290.47,550.08 294.16,557.78 C297.21,564.14 304.18,567.19 319.80,568.99 ZM 292.75 401.28 C298.64,402.18 326.56,401.95 335.67,400.93 C365.25,397.63 384.19,386.12 393.74,365.65 C398.61,355.21 399.48,350.38 399.46,334.00 C399.45,319.79 399.23,317.87 396.78,310.89 C390.39,292.69 378.06,279.33 361.68,272.87 C348.17,267.55 323.84,264.33 304.87,265.35 C298.47,265.69 292.51,266.25 291.62,266.59 C290.15,267.16 290.00,273.35 290.00,334.04 L 290.00 400.87 Z" fill="rgb(0,0,1)"/>
<path d="M 568.93 705.00 C577.51,678.88 591.94,634.68 601.01,606.78 C610.08,578.88 617.75,556.04 618.05,556.03 C618.35,556.01 621.20,562.86 624.40,571.25 C627.59,579.64 631.93,591.00 634.05,596.50 C636.16,602.00 642.21,617.97 647.49,632.00 C652.78,646.03 658.86,662.00 661.01,667.50 C663.15,673.00 669.62,689.65 675.37,704.50 C681.12,719.35 687.81,736.22 690.23,742.00 L 694.64 752.50 L 699.11 752.80 L 703.57 753.09 L 706.85 742.30 C708.65,736.36 714.16,718.22 719.11,702.00 C724.05,685.78 730.13,665.75 732.62,657.50 C735.11,649.25 738.21,639.12 739.51,635.00 C740.81,630.88 746.89,610.85 753.03,590.50 C783.06,490.85 789.90,470.38 796.37,460.77 C800.61,454.49 808.56,450.92 822.00,449.29 L 828.50 448.50 L 828.81 444.81 L 829.11 441.12 L 783.13 441.12 C757.84,441.12 734.41,440.81 731.07,440.43 L 725.00 439.74 L 725.00 448.67 L 735.25 449.79 C756.28,452.09 766.03,457.43 767.57,467.50 C768.46,473.35 765.93,493.08 762.85,504.26 C760.62,512.33 753.92,536.02 736.06,599.00 C729.43,622.38 722.32,647.46 720.26,654.74 C718.19,662.03 716.23,667.99 715.90,667.99 C714.99,668.00 704.92,643.28 693.49,613.00 C691.10,606.67 685.25,591.38 680.48,579.00 C675.72,566.62 670.76,553.58 669.47,550.00 C667.16,543.61 665.00,537.89 655.53,513.00 C652.92,506.12 648.13,492.69 644.89,483.14 C638.01,462.87 637.40,457.40 641.63,454.08 C645.04,451.40 650.36,450.00 660.40,449.17 L 668.50 448.50 L 669.11 440.00 L 610.31 439.99 C577.96,439.98 549.79,439.69 547.69,439.35 L 543.88 438.72 L 544.19 443.61 L 544.50 448.50 L 548.50 448.75 C571.94,450.20 580.68,458.03 592.88,488.50 C607.07,523.95 610.11,532.44 609.50,534.98 C608.21,540.33 564.88,670.52 564.13,671.27 C563.12,672.28 552.77,645.88 502.50,514.00 C490.80,483.31 485.00,465.83 485.00,461.27 C485.00,454.68 490.74,450.51 501.16,449.52 C504.65,449.19 509.41,448.68 511.75,448.40 L 516.00 447.88 L 516.00 438.75 L 486.99 439.48 L 457.97 440.22 L 452.74 435.79 C434.86,420.67 411.46,411.42 379.75,406.92 C374.94,406.24 371.00,405.30 371.00,404.84 C371.00,404.38 371.86,404.00 372.92,404.00 C376.49,404.00 398.52,397.19 407.54,393.30 C430.42,383.44 445.74,367.50 451.57,347.50 C452.77,343.37 453.29,338.23 453.24,331.00 C453.12,312.54 446.68,297.62 432.97,284.00 C417.76,268.90 396.58,260.08 365.52,255.92 C352.56,254.18 341.57,253.78 285.50,253.01 C280.60,252.94 275.73,252.87 270.96,252.81 L 275.56 248.51 C290.38,234.63 318.00,214.48 337.50,203.33 C359.73,190.61 387.01,179.02 412.00,171.69 C456.70,158.57 507.44,154.20 552.50,159.60 C631.18,169.03 701.04,202.23 757.35,256.95 C807.87,306.05 841.31,367.69 853.39,434.00 C858.14,460.04 859.91,492.00 858.09,518.68 C856.64,539.92 855.00,551.04 850.38,570.95 C830.23,657.69 777.28,731.01 699.14,780.39 C686.42,788.43 658.14,802.96 647.50,806.93 C644.20,808.16 639.47,810.02 637.00,811.05 C618.13,818.93 588.66,826.43 560.00,830.63 C550.04,832.09 490.18,833.43 481.00,832.40 C479.08,832.19 473.23,831.54 468.00,830.96 C442.60,828.15 409.36,819.89 384.50,810.21 C371.28,805.06 367.41,803.33 352.81,796.00 C299.03,769.04 253.84,729.29 221.18,680.25 C207.34,659.47 197.00,640.09 189.03,620.00 C177.88,591.92 171.46,566.42 166.86,532.00 C164.91,517.40 165.19,472.62 167.34,456.00 C171.05,427.37 178.49,397.88 188.10,373.76 C192.08,363.76 204.03,338.93 208.19,332.00 C215.96,319.06 224.49,306.15 230.73,297.84 C235.29,291.78 237.09,289.03 237.71,286.68 C238.93,332.25 239.42,521.93 238.12,539.68 C237.01,554.87 235.17,560.24 229.65,564.45 C225.16,567.88 215.89,570.81 206.90,571.65 L 200.00 572.29 L 200.00 582.00 L 283.75 581.99 C350.43,581.98 370.16,581.68 380.55,580.52 C412.78,576.92 434.62,568.47 453.84,552.17 C457.33,549.21 460.55,547.17 460.98,547.64 C461.74,548.46 477.28,587.92 481.01,598.50 C482.42,602.53 493.88,632.13 511.95,678.50 C519.94,698.99 538.63,744.29 541.17,749.30 C543.06,753.04 543.18,753.10 548.22,752.80 L 553.35 752.50 ZM 319.80 568.99 C304.18,567.19 297.21,564.14 294.16,557.78 C290.47,550.08 289.69,535.59 289.59,472.50 L 289.50 413.50 L 315.50 413.61 C342.90,413.72 354.00,414.91 368.00,419.23 C402.59,429.89 423.89,461.76 421.64,499.50 C420.38,520.56 414.56,534.52 401.65,547.44 C390.72,558.37 380.08,563.85 362.50,567.59 C353.91,569.42 330.23,570.19 319.80,568.99 ZM 292.75 401.28 L 290.00 400.87 L 290.00 334.04 C290.00,273.35 290.15,267.16 291.62,266.59 C292.51,266.25 298.47,265.69 304.87,265.35 C323.84,264.33 348.17,267.55 361.68,272.87 C378.06,279.33 390.39,292.69 396.78,310.89 C399.23,317.87 399.45,319.79 399.46,334.00 C399.48,350.38 398.61,355.21 393.74,365.65 C384.19,386.12 365.25,397.63 335.67,400.93 C326.56,401.95 298.64,402.18 292.75,401.28 ZM 225.75 252.22 C217.81,252.13 212.25,252.07 210.25,252.06 L 200.00 252.00 L 200.00 251.70 ZM 237.36 278.02 C235.27,268.89 227.71,264.96 210.57,263.05 C227.54,264.94 234.35,268.49 237.22,276.95 C237.27,277.09 237.32,277.45 237.36,278.02 Z" fill="rgb(175,206,234)"/>
<path d="M 0.00 512.00 L 0.00 0.00 L 512.00 0.00 L 1024.00 0.00 L 1024.00 512.00 L 1024.00 1024.00 L 512.00 1024.00 L 0.00 1024.00 L 0.00 512.00 ZM 560.00 830.63 C588.66,826.43 618.13,818.93 637.00,811.05 C639.47,810.02 644.20,808.16 647.50,806.93 C658.14,802.96 686.42,788.43 699.14,780.39 C777.28,731.01 830.23,657.69 850.38,570.95 C855.00,551.04 856.64,539.92 858.09,518.68 C859.91,492.00 858.14,460.04 853.39,434.00 C841.31,367.69 807.87,306.05 757.35,256.95 C701.04,202.23 631.18,169.03 552.50,159.60 C507.44,154.20 456.70,158.57 412.00,171.69 C387.01,179.02 359.73,190.61 337.50,203.33 C318.00,214.48 290.38,234.63 275.56,248.51 L 270.61 253.14 L 235.31 252.42 L 200.00 251.70 L 200.02 255.60 C200.02,257.75 200.39,260.07 200.84,260.77 C201.31,261.51 205.43,262.47 210.57,263.05 C231.23,265.35 237.97,270.59 237.99,284.34 C238.00,287.55 236.82,289.74 230.73,297.84 C224.49,306.15 215.96,319.06 208.19,332.00 C204.03,338.93 192.08,363.76 188.10,373.76 C178.49,397.88 171.05,427.37 167.34,456.00 C165.19,472.62 164.91,517.40 166.86,532.00 C171.46,566.42 177.88,591.92 189.03,620.00 C197.00,640.09 207.34,659.47 221.18,680.25 C253.84,729.29 299.03,769.04 352.81,796.00 C367.41,803.33 371.28,805.06 384.50,810.21 C409.36,819.89 442.60,828.15 468.00,830.96 C473.23,831.54 479.08,832.19 481.00,832.40 C490.18,833.43 550.04,832.09 560.00,830.63 Z" fill="rgb(253,253,253)"/>
</g>
</svg>